<svg width="24" height="24" viewBox="0 0 24 24" fill="none" xmlns="http://www.w3.org/2000/svg">
  <mask id="mask0_4321_405" style="mask-type:alpha" maskUnits="userSpaceOnUse" x="3" y="3"
    width="18" height="19">
    <path fill-rule="evenodd" clip-rule="evenodd"
      d="M21 7.03068C20.9495 8.41914 19.8219 9.39948 18.2652 9.39948C16.4475 9.39948 15.3283 8.17932 15.3283 6.1976C15.3283 4.21589 16.4433 2.99994 18.2652 2.99994C19.7925 2.99994 20.9495 4.01814 20.9958 5.39398H19.5106C19.4306 4.73341 18.9299 4.28742 18.2652 4.28742C17.4195 4.28742 16.9019 5.0111 16.9019 6.1934C16.9019 7.3799 17.4195 8.112 18.2694 8.112C18.9341 8.112 19.4306 7.68284 19.519 7.03068H21ZM7.28319 9.23539H8.96617L6.92556 3.16403H5.03641L3 9.23539H4.53151L4.92281 7.90162H6.90452L7.28319 9.23539ZM5.88211 4.53145H5.96205L6.6142 6.79086H5.21733L5.88211 4.53145ZM12.6458 9.23539C13.9459 9.23539 14.7664 8.54957 14.7664 7.48509C14.7664 6.71091 14.1521 6.09242 13.3569 6.05034V5.9704C14.0006 5.88205 14.4887 5.33087 14.4887 4.67871C14.4887 3.73624 13.7734 3.16403 12.5617 3.16403H9.73008V9.23539H12.6458ZM11.2742 4.25376H12.1494C12.6753 4.25376 12.9824 4.51462 12.9824 4.94799C12.9824 5.37715 12.6543 5.63801 12.0905 5.63801H11.2742V4.25376ZM11.2742 8.14566V6.57628H12.1999C12.8394 6.57628 13.197 6.85397 13.197 7.35045C13.197 7.86376 12.8478 8.14566 12.2083 8.14566H11.2742ZM4 12.2147C4 11.6624 4.44772 11.2147 5 11.2147H7C7.55228 11.2147 8 11.6624 8 12.2147V14.2147C8 14.767 7.55228 15.2147 7 15.2147H5C4.44772 15.2147 4 14.767 4 14.2147V12.2147ZM10 12.2147C10 11.6624 10.4477 11.2147 11 11.2147H13C13.5523 11.2147 14 11.6624 14 12.2147V14.2147C14 14.767 13.5523 15.2147 13 15.2147H11C10.4477 15.2147 10 14.767 10 14.2147V12.2147ZM17 11.2147C16.4477 11.2147 16 11.6624 16 12.2147V14.2147C16 14.767 16.4477 15.2147 17 15.2147H19C19.5523 15.2147 20 14.767 20 14.2147V12.2147C20 11.6624 19.5523 11.2147 19 11.2147H17ZM10 18.2147C10 17.6624 10.4477 17.2147 11 17.2147H13C13.5523 17.2147 14 17.6624 14 18.2147V20.2147C14 20.767 13.5523 21.2147 13 21.2147H11C10.4477 21.2147 10 20.767 10 20.2147V18.2147Z"
      fill="#00B8F5" />
  </mask>
  <g mask="url(#mask0_4321_405)">
    <rect width="24" height="24" fill="currentColor" />
  </g>
</svg>
  